<svg width="36" height="36" fill="none" xmlns="http://www.w3.org/2000/svg"><path d="M22.229 6.39a15.19 15.19 0 00-.795 1.65 21.99 21.99 0 00-6.87 0 15.227 15.227 0 00-.795-1.65 24 24 0 00-6.195 1.95 25.995 25.995 0 00-4.5 17.386 24.9 24.9 0 007.605 3.885A19.348 19.348 0 0012.344 27a14.476 14.476 0 01-2.565-1.245c.222-.148.433-.314.63-.495a17.49 17.49 0 0015.18 0c.21.18.42.345.63.495a16.26 16.26 0 01-2.565 1.26 18.602 18.602 0 001.62 2.67 24.66 24.66 0 007.59-3.885 25.83 25.83 0 00-4.5-17.385 24.136 24.136 0 00-6.135-2.025zm-9.21 15.826a2.91 2.91 0 01-2.7-3 2.895 2.895 0 012.7-3 2.895 2.895 0 012.7 3 2.895 2.895 0 01-2.7 3zm9.96 0a2.91 2.91 0 01-2.7-3 2.895 2.895 0 012.7-3 2.88 2.88 0 012.7 3 2.88 2.88 0 01-2.7 3z" fill="#43A1F7"/></svg>