<svg width="32" height="32" fill="none" xmlns="http://www.w3.org/2000/svg"><path fill-rule="evenodd" clip-rule="evenodd" d="M16 1.917C10.43 1.917 5.916 6.43 5.916 12v4.583h-.08c-.534 0-.98 0-1.344.03-.38.03-.737.098-1.074.27a2.75 2.75 0 00-1.202 1.202c-.172.337-.239.694-.27 1.073-.03.365-.03.81-.03 1.345v5.66c0 .535 0 .98.03 1.345.031.38.098.736.27 1.074a2.75 2.75 0 001.202 1.201c.337.172.694.24 1.074.27.364.03.81.03 1.344.03h1.661c.534 0 .98 0 1.344-.03.38-.03.737-.098 1.074-.27a2.75 2.75 0 001.202-1.201c.172-.338.239-.694.27-1.074.03-.364.03-.81.03-1.344v-5.661c0-.535 0-.98-.03-1.345-.031-.38-.098-.736-.27-1.073a2.75 2.75 0 00-1.202-1.202c-.337-.172-.694-.24-1.074-.27-.364-.03-.81-.03-1.344-.03h-.08V12a8.583 8.583 0 0117.166 0v4.583h-.08c-.534 0-.98 0-1.345.03-.38.03-.736.098-1.073.27a2.751 2.751 0 00-1.202 1.202c-.172.337-.24.694-.27 1.073-.03.365-.03.81-.03 1.345v5.66c0 .535 0 .98.03 1.345.03.38.098.736.27 1.074a2.75 2.75 0 001.202 1.201c.337.172.694.24 1.073.27.365.03.81.03 1.345.03h1.66c.535 0 .98 0 1.345-.03.38-.03.736-.098 1.074-.27a2.749 2.749 0 001.201-1.201c.172-.338.24-.694.27-1.074.03-.364.03-.81.03-1.344v-5.661c0-.535 0-.98-.03-1.345-.03-.38-.098-.736-.27-1.073a2.75 2.75 0 00-1.201-1.202c-.338-.172-.694-.24-1.074-.27-.364-.03-.81-.03-1.344-.03h-.08V12C26.083 6.43 21.568 1.916 16 1.916z" fill="#43A1F7"/></svg>