<svg width="246" height="78" fill="none" xmlns="http://www.w3.org/2000/svg"><path d="M3 39C3 19.118 19.118 3 39 3s36 16.118 36 36-16.118 36-36 36S3 58.882 3 39z" fill="#fff" fill-opacity=".08"/><path d="M54.875 33.871c.716-4.79-2.931-7.366-7.919-9.084l1.618-6.49-3.95-.984-1.575 6.319a163.381 163.381 0 00-3.165-.745l1.586-6.36-3.948-.985-1.619 6.487c-.86-.195-1.703-.389-2.522-.592l.004-.02-5.447-1.361-1.051 4.22s2.93.671 2.869.712c1.6.4 1.889 1.459 1.84 2.298l-1.842 7.393c.11.028.253.069.41.132-.131-.033-.272-.069-.417-.103l-2.583 10.356c-.196.486-.692 1.216-1.81.939.04.057-2.872-.717-2.872-.717l-1.961 4.522 5.14 1.282c.957.24 1.894.49 2.817.726l-1.634 6.564 3.945.985 1.62-6.495a142.8 142.8 0 003.148.817l-1.614 6.464 3.95.984 1.635-6.551c6.736 1.275 11.802.76 13.934-5.332 1.717-4.906-.086-7.735-3.63-9.58 2.581-.596 4.526-2.293 5.044-5.8l-.001-.001zm-9.026 12.656c-1.221 4.906-9.48 2.254-12.158 1.59l2.169-8.697c2.678.669 11.265 1.991 9.989 7.107zM47.07 33.8c-1.114 4.462-7.988 2.195-10.218 1.64l1.966-7.888c2.23.556 9.412 1.594 8.252 6.248z" fill="#fff"/><path d="M39 72C20.775 72 6 57.225 6 39H0c0 21.54 17.46 39 39 39v-6zm33-33c0 18.225-14.775 33-33 33v6c21.54 0 39-17.46 39-39h-6zM39 6c18.225 0 33 14.775 33 33h6C78 17.46 60.54 0 39 0v6zm0-6C17.46 0 0 17.46 0 39h6C6 20.775 20.775 6 39 6V0z" fill="#fff" fill-opacity=".12"/><path d="M171 39c0-19.882 16.118-36 36-36s36 16.118 36 36-16.118 36-36 36-36-16.118-36-36z" fill="#fff" fill-opacity=".08"/><path fill-rule="evenodd" clip-rule="evenodd" d="M221.625 28.5l-34.125 21h39l-4.875-21zm-29.25 0l11.371 8.589L187.5 49.5l4.875-21z" fill="#fff"/><path d="M207 72c-18.225 0-33-14.775-33-33h-6c0 21.54 17.461 39 39 39v-6zm33-33c0 18.225-14.775 33-33 33v6c21.539 0 39-17.46 39-39h-6zM207 6c18.225 0 33 14.775 33 33h6c0-21.54-17.461-39-39-39v6zm0-6c-21.539 0-39 17.46-39 39h6c0-18.225 14.775-33 33-33V0z" fill="#fff" fill-opacity=".12"/><rect x="95" y="23" width="56" height="32" rx="16" fill="#43A1F7"/><rect x="95" y="23" width="56" height="32" rx="16" fill="url(#paint0_linear_392_709)"/><circle cx="135" cy="39" r="14" fill="#fff"/><path fill-rule="evenodd" clip-rule="evenodd" d="M138.25 34a.916.916 0 00-.917-.916h-.053a.97.97 0 00-.929.69l-.343 1.143h1.325c.507 0 .917-.41.917-.917zm1.32.917a2.417 2.417 0 00-2.237-3.333h-.053a2.47 2.47 0 00-2.28 1.519 2.47 2.47 0 00-2.28-1.52h-.053a2.417 2.417 0 00-2.237 3.334h-1.097a1.75 1.75 0 000 3.5h11.334a1.75 1.75 0 000-3.5h-1.097zm-6.903 0h1.325l-.342-1.142a.971.971 0 00-.93-.691h-.053a.917.917 0 000 1.833zm-1.38 4h7.426c.382-.001.747-.002 1.065.11.56.195 1 .636 1.196 1.196.111.317.11.682.11 1.064l-.001.094.001.15c0 1.051 0 1.77-.211 2.374a3.75 3.75 0 01-2.301 2.301c-.604.212-1.323.211-2.375.21h-2.393c-1.053.001-1.772.002-2.376-.21a3.75 3.75 0 01-2.301-2.3c-.211-.604-.211-1.324-.21-2.376v-.243c-.001-.382-.002-.747.109-1.064.196-.56.637-1 1.197-1.197.317-.11.682-.11 1.064-.11z" fill="#43A1F7"/><defs><linearGradient id="paint0_linear_392_709" x1="151" y1="23" x2="92.946" y2="27.305" gradientUnits="userSpaceOnUse"><stop stop-color="#577CFF"/><stop offset="1" stop-color="#4CBFFF"/></linearGradient></defs></svg>