<svg width="380" height="200" fill="none" xmlns="http://www.w3.org/2000/svg"><path d="M40 167.5l10.518-16.863c1.49-2.389 4.96-2.416 6.487-.049v0c1.648 2.553 5.468 2.273 6.725-.494l10.289-22.65c1.45-3.193 6.017-3.106 7.344.142l2.048 5.009c1.316 3.22 5.832 3.338 7.32.194v0c1.456-3.076 5.846-3.048 7.257.049l5.086 11.161c1.423 3.124 5.862 3.122 7.281-.004l5.297-11.659c.936-2.062 3.87-2.043 4.781.029v0c1.068 2.43 4.657 1.913 4.995-.72l5.57-43.411c.373-2.904 3.636-4.437 6.109-2.87l8.545 5.416c.231.146.447.316.644.507l15.779 15.301c.282.273.522.586.712.93l6.233 11.228c1.519 2.735 5.447 2.747 6.983.022l4.142-7.354c1.662-2.95 6.009-2.63 7.221.532l1.297 3.386c1.308 3.415 6.134 3.429 7.462.022l4.302-11.039c1.468-3.77 6.965-3.226 7.666.758l1.704 9.679c.755 4.286 6.845 4.454 7.835.216l6.405-27.423c.845-3.618 5.737-4.23 7.446-.931l7.481 14.431c1.394 2.69 5.155 2.914 6.859.409l2.279-3.351c1.913-2.811 6.238-2.107 7.158 1.166l3.936 13.989c1.116 3.965 6.773 3.859 7.739-.145l5.44-22.549c.942-3.907 6.412-4.14 7.683-.326l4.63 13.894c.971 2.915 5.033 3.076 6.233.248l.346-.815c.952-2.244 4.077-2.392 5.236-.248v0c1.147 2.121 4.227 2.006 5.213-.193l15.541-34.669c1.237-2.758 5.189-2.65 6.274.17v0c1.123 2.922 5.263 2.901 6.357-.03L340 41.5" stroke="#43A1F7" stroke-width="3"/><path d="M40 167.5l10.518-16.863c1.49-2.389 4.96-2.416 6.487-.049v0c1.648 2.553 5.468 2.273 6.725-.494l10.289-22.65c1.45-3.193 6.017-3.106 7.344.142l2.048 5.009c1.316 3.22 5.832 3.338 7.32.194v0c1.456-3.076 5.846-3.048 7.257.049l5.086 11.161c1.423 3.124 5.862 3.122 7.281-.004l5.297-11.659c.936-2.062 3.87-2.043 4.781.029v0c1.068 2.43 4.657 1.913 4.995-.72l5.57-43.411c.373-2.904 3.636-4.437 6.109-2.87l8.545 5.416c.231.146.447.316.644.507l15.779 15.301c.282.273.522.586.712.93l6.233 11.228c1.519 2.735 5.447 2.747 6.983.022l4.142-7.354c1.662-2.95 6.009-2.63 7.221.532l1.297 3.386c1.308 3.415 6.134 3.429 7.462.022l4.302-11.039c1.468-3.77 6.965-3.226 7.666.758l1.704 9.679c.755 4.286 6.845 4.454 7.835.216l6.405-27.423c.845-3.618 5.737-4.23 7.446-.931l7.481 14.431c1.394 2.69 5.155 2.914 6.859.409l2.279-3.351c1.913-2.811 6.238-2.107 7.158 1.166l3.936 13.989c1.116 3.965 6.773 3.859 7.739-.145l5.44-22.549c.942-3.907 6.412-4.14 7.683-.326l4.63 13.894c.971 2.915 5.033 3.076 6.233.248l.346-.815c.952-2.244 4.077-2.392 5.236-.248v0c1.147 2.121 4.227 2.006 5.213-.193l15.541-34.669c1.237-2.758 5.189-2.65 6.274.17v0c1.123 2.922 5.263 2.901 6.357-.03L340 41.5" stroke="url(#paint0_linear_392_670)" stroke-width="3"/><rect x="135" y="45" width="110" height="110" rx="55" fill="#1D2022"/><path d="M142 100c0-26.51 21.49-48 48-48s48 21.49 48 48-21.49 48-48 48-48-21.49-48-48z" fill="#fff" fill-opacity=".08"/><path fill-rule="evenodd" clip-rule="evenodd" d="M209.5 86L164 114h52l-6.5-28zm-39 0l15.161 11.452L164 114l6.5-28z" fill="#fff"/><path d="M190 145c-24.853 0-45-20.147-45-45h-6c0 28.167 22.833 51 51 51v-6zm45-45c0 24.853-20.147 45-45 45v6c28.167 0 51-22.833 51-51h-6zm-45-45c24.853 0 45 20.147 45 45h6c0-28.166-22.833-51-51-51v6zm0-6c-28.167 0-51 22.834-51 51h6c0-24.853 20.147-45 45-45v-6z" fill="#fff" fill-opacity=".08"/><defs><linearGradient id="paint0_linear_392_670" x1="340" y1="41.5" x2="30.439" y2="72.729" gradientUnits="userSpaceOnUse"><stop stop-color="#577CFF"/><stop offset="1" stop-color="#4CBFFF"/></linearGradient></defs></svg>