<svg width="100" height="100" fill="none" xmlns="http://www.w3.org/2000/svg"><rect width="100" height="100" rx="50" fill="#FF68C3" fill-opacity=".16"/><path fill-rule="evenodd" clip-rule="evenodd" d="M34 28h-.186c-.738-.001-1.462-.003-2.108.17a5 5 0 00-3.536 3.536c-.173.646-.172 1.37-.17 2.108v23.472c0 2.167 0 3.916.116 5.331.119 1.458.37 2.738.974 3.923a10 10 0 004.37 4.37c1.185.604 2.465.855 3.923.974 1.415.116 3.164.116 5.331.116h14.571c2.168 0 3.916 0 5.332-.116 1.458-.119 2.738-.37 3.923-.974a10 10 0 004.37-4.37c.604-1.185.855-2.465.974-3.923.017-.199.03-.404.043-.617h-3.991c-.877 0-1.634 0-2.26-.043-.66-.045-1.32-.144-1.972-.414a6 6 0 01-3.247-3.247c-.27-.652-.37-1.312-.414-1.971C60 55.698 60 54.94 60 54.064v-.128c0-.877 0-1.634.043-2.26.045-.66.144-1.32.414-1.972a6 6 0 013.247-3.247c.652-.27 1.312-.37 1.971-.414C66.302 46 67.06 46 67.935 46h3.992a24.517 24.517 0 00-.043-.617c-.119-1.458-.37-2.738-.974-3.923a10 10 0 00-4.37-4.37c-1.185-.604-2.465-.855-3.923-.974-.49-.04-1.02-.067-1.593-.084L57.52 31.36l-.12-.161c-.584-.78-1.098-1.466-1.773-1.979a6 6 0 00-1.98-.99c-.815-.232-1.672-.231-2.646-.23H34zm22 8l-1.68-2.24c-.774-1.031-.94-1.224-1.111-1.353a2.001 2.001 0 00-.66-.33c-.206-.059-.46-.077-1.75-.077H34c-.482 0-.778 0-1.002.01-.213.01-.263.026-.256.024a1 1 0 00-.707.707c.002-.007-.014.043-.023.256C32 33.221 32 33.517 32 34c0 .483 0 .779.01 1.003.01.2.024.257.024.257v-.001a1 1 0 00.707.707c.007.002.069.015.256.023.191.01.435.01.803.011H56zm16 21.302V50h-4c-.96 0-1.579.001-2.053.033-.456.032-.63.085-.712.12a2 2 0 00-1.083 1.082c-.034.083-.088.257-.119.712C64.001 52.421 64 53.041 64 54c0 .96.001 1.578.033 2.053.031.456.085.63.12.712a2 2 0 001.082 1.083c.083.034.256.087.712.119.474.032 1.094.033 2.053.033h4v-.698z" fill="#FF68C3"/></svg>