<svg width="100" height="100" fill="none" xmlns="http://www.w3.org/2000/svg"><rect width="100" height="100" rx="50" fill="#EA68FF" fill-opacity=".16"/><path fill-rule="evenodd" clip-rule="evenodd" d="M56 28a2 2 0 100 4 6 6 0 010 12 2 2 0 100 4c5.523 0 10-4.477 10-10s-4.477-10-10-10zm6.4 28c1.713 0 2.878.002 3.778.075.877.072 1.325.202 1.638.361a4 4 0 011.748 1.748c.16.313.29.761.36 1.638.074.9.076 2.065.076 3.778 0 1.153-.002 1.898-.048 2.464-.044.544-.12.745-.17.844a2 2 0 01-.874.874c-.099.05-.3.126-.844.17-.566.046-1.31.048-2.464.048H60a2 2 0 100 4h5.677c1.054 0 1.964 0 2.713-.061.79-.065 1.577-.207 2.334-.593a6 6 0 002.622-2.622c.386-.757.528-1.543.593-2.334.061-.75.061-1.659.061-2.713v-.16c0-1.61 0-2.938-.088-4.02-.092-1.125-.29-2.158-.784-3.129a8 8 0 00-3.496-3.496c-.97-.495-2.004-.692-3.128-.784C65.42 52 64.092 52 62.483 52H60a2 2 0 100 4h2.4zM32 38c0-5.523 4.477-10 10-10s10 4.477 10 10-4.477 10-10 10-10-4.477-10-10zm4 14c-5.523 0-10 4.477-10 10s4.477 10 10 10h12c5.523 0 10-4.477 10-10s-4.477-10-10-10H36z" fill="#EA68FF"/></svg>