<svg width="100" height="100" fill="none" xmlns="http://www.w3.org/2000/svg"><rect width="100" height="100" rx="50" fill="#CF68FF" fill-opacity=".16"/><path fill-rule="evenodd" clip-rule="evenodd" d="M51.106 26.575a6 6 0 00-2.212 0c-.834.156-1.6.54-2.47.977l-.18.09L30.83 35.35l-.079.04c-.853.426-1.614.806-2.19 1.163-.567.352-1.296.877-1.703 1.734a4 4 0 000 3.428c.407.858 1.136 1.383 1.703 1.734.576.357 1.337.737 2.19 1.164l.079.04 15.413 7.706.18.09c.87.436 1.637.82 2.47.977a6 6 0 002.213 0c.834-.156 1.6-.54 2.47-.977l.18-.09L69.17 44.65l.079-.04c.854-.426 1.614-.806 2.19-1.163.567-.352 1.296-.877 1.703-1.734a4 4 0 000-3.428c-.407-.858-1.136-1.382-1.703-1.734-.576-.357-1.336-.737-2.19-1.164l-.079-.039-15.413-7.707-.18-.09c-.87-.436-1.637-.82-2.47-.977zM30.894 50.211a2 2 0 00-1.788 3.578l18.569 9.284.11.056c.405.204.915.46 1.477.566.488.092.988.092 1.476 0 .563-.105 1.072-.362 1.478-.566l.11-.056 18.568-9.284a2 2 0 10-1.788-3.578l-18.57 9.285c-.28.14-.422.21-.528.256l-.008.004-.008-.004a12.654 12.654 0 01-.529-.256L30.894 50.21zm0 10a2 2 0 00-1.788 3.578l18.569 9.284.11.056c.405.204.915.46 1.477.566.488.092.988.092 1.476 0 .563-.105 1.072-.362 1.478-.566l.11-.056 18.568-9.284a2 2 0 10-1.788-3.578l-18.57 9.285c-.28.14-.422.21-.528.256l-.008.004-.008-.004a12.654 12.654 0 01-.529-.256L30.894 60.21z" fill="#CF68FF"/></svg>